<mxfile host="app.diagrams.net" modified="2024-06-19T01:48:32.152Z" agent="Mozilla/5.0 (Macintosh; Intel Mac OS X 10_15_7) AppleWebKit/605.1.15 (KHTML, like Gecko) Version/17.1 Safari/605.1.15" etag="WfqC7BRn3nllnZTETFr5" version="24.5.5" type="github">
  <diagram name="第 1 页" id="mSj27gr01lUWhsnLit3x">
    <mxGraphModel dx="1698" dy="1373" grid="1" gridSize="10" guides="1" tooltips="1" connect="1" arrows="1" fold="1" page="1" pageScale="1" pageWidth="827" pageHeight="1169" math="0" shadow="0">
      <root>
        <mxCell id="0" />
        <mxCell id="1" parent="0" />
        <mxCell id="Hs8WbcXcdVRiZlc4-tPR-161" value="" style="ellipse;whiteSpace=wrap;html=1;aspect=fixed;dashed=1;opacity=80;" vertex="1" parent="1">
          <mxGeometry x="255" y="265" width="95" height="95" as="geometry" />
        </mxCell>
        <mxCell id="Hs8WbcXcdVRiZlc4-tPR-66" value="" style="ellipse;whiteSpace=wrap;html=1;aspect=fixed;" vertex="1" parent="1">
          <mxGeometry x="290" y="300" width="20" height="20" as="geometry" />
        </mxCell>
        <mxCell id="Hs8WbcXcdVRiZlc4-tPR-67" value="" style="ellipse;whiteSpace=wrap;html=1;aspect=fixed;" vertex="1" parent="1">
          <mxGeometry x="260" y="265" width="20" height="20" as="geometry" />
        </mxCell>
        <mxCell id="Hs8WbcXcdVRiZlc4-tPR-68" value="" style="ellipse;whiteSpace=wrap;html=1;aspect=fixed;" vertex="1" parent="1">
          <mxGeometry x="330" y="280" width="20" height="20" as="geometry" />
        </mxCell>
        <mxCell id="Hs8WbcXcdVRiZlc4-tPR-69" value="" style="ellipse;whiteSpace=wrap;html=1;aspect=fixed;" vertex="1" parent="1">
          <mxGeometry x="320" y="340" width="20" height="20" as="geometry" />
        </mxCell>
        <mxCell id="Hs8WbcXcdVRiZlc4-tPR-70" value="" style="ellipse;whiteSpace=wrap;html=1;aspect=fixed;" vertex="1" parent="1">
          <mxGeometry x="250" y="320" width="20" height="20" as="geometry" />
        </mxCell>
        <mxCell id="Hs8WbcXcdVRiZlc4-tPR-87" value="" style="group" vertex="1" connectable="0" parent="1">
          <mxGeometry x="180" y="250" width="30" height="40" as="geometry" />
        </mxCell>
        <mxCell id="Hs8WbcXcdVRiZlc4-tPR-1" value="" style="rounded=0;whiteSpace=wrap;html=1;" vertex="1" parent="Hs8WbcXcdVRiZlc4-tPR-87">
          <mxGeometry width="10" height="10" as="geometry" />
        </mxCell>
        <mxCell id="Hs8WbcXcdVRiZlc4-tPR-5" value="" style="rounded=0;whiteSpace=wrap;html=1;" vertex="1" parent="Hs8WbcXcdVRiZlc4-tPR-87">
          <mxGeometry y="10" width="10" height="10" as="geometry" />
        </mxCell>
        <mxCell id="Hs8WbcXcdVRiZlc4-tPR-6" value="" style="rounded=0;whiteSpace=wrap;html=1;" vertex="1" parent="Hs8WbcXcdVRiZlc4-tPR-87">
          <mxGeometry y="20" width="10" height="10" as="geometry" />
        </mxCell>
        <mxCell id="Hs8WbcXcdVRiZlc4-tPR-7" value="" style="rounded=0;whiteSpace=wrap;html=1;" vertex="1" parent="Hs8WbcXcdVRiZlc4-tPR-87">
          <mxGeometry y="30" width="10" height="10" as="geometry" />
        </mxCell>
        <mxCell id="Hs8WbcXcdVRiZlc4-tPR-9" value="" style="rounded=0;whiteSpace=wrap;html=1;" vertex="1" parent="Hs8WbcXcdVRiZlc4-tPR-87">
          <mxGeometry x="10" width="10" height="10" as="geometry" />
        </mxCell>
        <mxCell id="Hs8WbcXcdVRiZlc4-tPR-10" value="" style="rounded=0;whiteSpace=wrap;html=1;" vertex="1" parent="Hs8WbcXcdVRiZlc4-tPR-87">
          <mxGeometry x="20" width="10" height="10" as="geometry" />
        </mxCell>
        <mxCell id="Hs8WbcXcdVRiZlc4-tPR-11" value="" style="rounded=0;whiteSpace=wrap;html=1;" vertex="1" parent="Hs8WbcXcdVRiZlc4-tPR-87">
          <mxGeometry x="10" y="10" width="10" height="10" as="geometry" />
        </mxCell>
        <mxCell id="Hs8WbcXcdVRiZlc4-tPR-12" value="" style="rounded=0;whiteSpace=wrap;html=1;" vertex="1" parent="Hs8WbcXcdVRiZlc4-tPR-87">
          <mxGeometry x="20" y="10" width="10" height="10" as="geometry" />
        </mxCell>
        <mxCell id="Hs8WbcXcdVRiZlc4-tPR-13" value="" style="rounded=0;whiteSpace=wrap;html=1;" vertex="1" parent="Hs8WbcXcdVRiZlc4-tPR-87">
          <mxGeometry x="10" y="20" width="10" height="10" as="geometry" />
        </mxCell>
        <mxCell id="Hs8WbcXcdVRiZlc4-tPR-14" value="" style="rounded=0;whiteSpace=wrap;html=1;" vertex="1" parent="Hs8WbcXcdVRiZlc4-tPR-87">
          <mxGeometry x="20" y="20" width="10" height="10" as="geometry" />
        </mxCell>
        <mxCell id="Hs8WbcXcdVRiZlc4-tPR-15" value="" style="rounded=0;whiteSpace=wrap;html=1;" vertex="1" parent="Hs8WbcXcdVRiZlc4-tPR-87">
          <mxGeometry x="10" y="30" width="10" height="10" as="geometry" />
        </mxCell>
        <mxCell id="Hs8WbcXcdVRiZlc4-tPR-16" value="" style="rounded=0;whiteSpace=wrap;html=1;" vertex="1" parent="Hs8WbcXcdVRiZlc4-tPR-87">
          <mxGeometry x="20" y="30" width="10" height="10" as="geometry" />
        </mxCell>
        <mxCell id="Hs8WbcXcdVRiZlc4-tPR-101" value="" style="group" vertex="1" connectable="0" parent="1">
          <mxGeometry x="180" y="320" width="30" height="40" as="geometry" />
        </mxCell>
        <mxCell id="Hs8WbcXcdVRiZlc4-tPR-102" value="" style="rounded=0;whiteSpace=wrap;html=1;" vertex="1" parent="Hs8WbcXcdVRiZlc4-tPR-101">
          <mxGeometry width="10" height="10" as="geometry" />
        </mxCell>
        <mxCell id="Hs8WbcXcdVRiZlc4-tPR-103" value="" style="rounded=0;whiteSpace=wrap;html=1;" vertex="1" parent="Hs8WbcXcdVRiZlc4-tPR-101">
          <mxGeometry y="10" width="10" height="10" as="geometry" />
        </mxCell>
        <mxCell id="Hs8WbcXcdVRiZlc4-tPR-104" value="" style="rounded=0;whiteSpace=wrap;html=1;" vertex="1" parent="Hs8WbcXcdVRiZlc4-tPR-101">
          <mxGeometry y="20" width="10" height="10" as="geometry" />
        </mxCell>
        <mxCell id="Hs8WbcXcdVRiZlc4-tPR-105" value="" style="rounded=0;whiteSpace=wrap;html=1;" vertex="1" parent="Hs8WbcXcdVRiZlc4-tPR-101">
          <mxGeometry y="30" width="10" height="10" as="geometry" />
        </mxCell>
        <mxCell id="Hs8WbcXcdVRiZlc4-tPR-106" value="" style="rounded=0;whiteSpace=wrap;html=1;" vertex="1" parent="Hs8WbcXcdVRiZlc4-tPR-101">
          <mxGeometry x="10" width="10" height="10" as="geometry" />
        </mxCell>
        <mxCell id="Hs8WbcXcdVRiZlc4-tPR-107" value="" style="rounded=0;whiteSpace=wrap;html=1;" vertex="1" parent="Hs8WbcXcdVRiZlc4-tPR-101">
          <mxGeometry x="20" width="10" height="10" as="geometry" />
        </mxCell>
        <mxCell id="Hs8WbcXcdVRiZlc4-tPR-108" value="" style="rounded=0;whiteSpace=wrap;html=1;" vertex="1" parent="Hs8WbcXcdVRiZlc4-tPR-101">
          <mxGeometry x="10" y="10" width="10" height="10" as="geometry" />
        </mxCell>
        <mxCell id="Hs8WbcXcdVRiZlc4-tPR-109" value="" style="rounded=0;whiteSpace=wrap;html=1;" vertex="1" parent="Hs8WbcXcdVRiZlc4-tPR-101">
          <mxGeometry x="20" y="10" width="10" height="10" as="geometry" />
        </mxCell>
        <mxCell id="Hs8WbcXcdVRiZlc4-tPR-110" value="" style="rounded=0;whiteSpace=wrap;html=1;" vertex="1" parent="Hs8WbcXcdVRiZlc4-tPR-101">
          <mxGeometry x="10" y="20" width="10" height="10" as="geometry" />
        </mxCell>
        <mxCell id="Hs8WbcXcdVRiZlc4-tPR-111" value="" style="rounded=0;whiteSpace=wrap;html=1;" vertex="1" parent="Hs8WbcXcdVRiZlc4-tPR-101">
          <mxGeometry x="20" y="20" width="10" height="10" as="geometry" />
        </mxCell>
        <mxCell id="Hs8WbcXcdVRiZlc4-tPR-112" value="" style="rounded=0;whiteSpace=wrap;html=1;" vertex="1" parent="Hs8WbcXcdVRiZlc4-tPR-101">
          <mxGeometry x="10" y="30" width="10" height="10" as="geometry" />
        </mxCell>
        <mxCell id="Hs8WbcXcdVRiZlc4-tPR-113" value="" style="rounded=0;whiteSpace=wrap;html=1;" vertex="1" parent="Hs8WbcXcdVRiZlc4-tPR-101">
          <mxGeometry x="20" y="30" width="10" height="10" as="geometry" />
        </mxCell>
        <mxCell id="Hs8WbcXcdVRiZlc4-tPR-116" value="" style="group" vertex="1" connectable="0" parent="1">
          <mxGeometry x="230" y="220" width="32" height="40" as="geometry" />
        </mxCell>
        <mxCell id="Hs8WbcXcdVRiZlc4-tPR-89" value="" style="rounded=0;whiteSpace=wrap;html=1;" vertex="1" parent="Hs8WbcXcdVRiZlc4-tPR-116">
          <mxGeometry width="10" height="10" as="geometry" />
        </mxCell>
        <mxCell id="Hs8WbcXcdVRiZlc4-tPR-90" value="" style="rounded=0;whiteSpace=wrap;html=1;" vertex="1" parent="Hs8WbcXcdVRiZlc4-tPR-116">
          <mxGeometry y="10" width="10" height="10" as="geometry" />
        </mxCell>
        <mxCell id="Hs8WbcXcdVRiZlc4-tPR-91" value="" style="rounded=0;whiteSpace=wrap;html=1;" vertex="1" parent="Hs8WbcXcdVRiZlc4-tPR-116">
          <mxGeometry y="20" width="10" height="10" as="geometry" />
        </mxCell>
        <mxCell id="Hs8WbcXcdVRiZlc4-tPR-92" value="" style="rounded=0;whiteSpace=wrap;html=1;" vertex="1" parent="Hs8WbcXcdVRiZlc4-tPR-116">
          <mxGeometry y="30" width="10" height="10" as="geometry" />
        </mxCell>
        <mxCell id="Hs8WbcXcdVRiZlc4-tPR-115" value="" style="group" vertex="1" connectable="0" parent="Hs8WbcXcdVRiZlc4-tPR-116">
          <mxGeometry x="12" width="20" height="40" as="geometry" />
        </mxCell>
        <mxCell id="Hs8WbcXcdVRiZlc4-tPR-93" value="" style="rounded=0;whiteSpace=wrap;html=1;" vertex="1" parent="Hs8WbcXcdVRiZlc4-tPR-115">
          <mxGeometry width="10" height="10" as="geometry" />
        </mxCell>
        <mxCell id="Hs8WbcXcdVRiZlc4-tPR-94" value="" style="rounded=0;whiteSpace=wrap;html=1;" vertex="1" parent="Hs8WbcXcdVRiZlc4-tPR-115">
          <mxGeometry x="10" width="10" height="10" as="geometry" />
        </mxCell>
        <mxCell id="Hs8WbcXcdVRiZlc4-tPR-95" value="" style="rounded=0;whiteSpace=wrap;html=1;" vertex="1" parent="Hs8WbcXcdVRiZlc4-tPR-115">
          <mxGeometry y="10" width="10" height="10" as="geometry" />
        </mxCell>
        <mxCell id="Hs8WbcXcdVRiZlc4-tPR-96" value="" style="rounded=0;whiteSpace=wrap;html=1;" vertex="1" parent="Hs8WbcXcdVRiZlc4-tPR-115">
          <mxGeometry x="10" y="10" width="10" height="10" as="geometry" />
        </mxCell>
        <mxCell id="Hs8WbcXcdVRiZlc4-tPR-97" value="" style="rounded=0;whiteSpace=wrap;html=1;" vertex="1" parent="Hs8WbcXcdVRiZlc4-tPR-115">
          <mxGeometry y="20" width="10" height="10" as="geometry" />
        </mxCell>
        <mxCell id="Hs8WbcXcdVRiZlc4-tPR-98" value="" style="rounded=0;whiteSpace=wrap;html=1;" vertex="1" parent="Hs8WbcXcdVRiZlc4-tPR-115">
          <mxGeometry x="10" y="20" width="10" height="10" as="geometry" />
        </mxCell>
        <mxCell id="Hs8WbcXcdVRiZlc4-tPR-99" value="" style="rounded=0;whiteSpace=wrap;html=1;" vertex="1" parent="Hs8WbcXcdVRiZlc4-tPR-115">
          <mxGeometry y="30" width="10" height="10" as="geometry" />
        </mxCell>
        <mxCell id="Hs8WbcXcdVRiZlc4-tPR-100" value="" style="rounded=0;whiteSpace=wrap;html=1;" vertex="1" parent="Hs8WbcXcdVRiZlc4-tPR-115">
          <mxGeometry x="10" y="30" width="10" height="10" as="geometry" />
        </mxCell>
        <mxCell id="Hs8WbcXcdVRiZlc4-tPR-117" value="" style="group" vertex="1" connectable="0" parent="1">
          <mxGeometry x="350" y="240" width="32" height="40" as="geometry" />
        </mxCell>
        <mxCell id="Hs8WbcXcdVRiZlc4-tPR-118" value="" style="rounded=0;whiteSpace=wrap;html=1;" vertex="1" parent="Hs8WbcXcdVRiZlc4-tPR-117">
          <mxGeometry width="10" height="10" as="geometry" />
        </mxCell>
        <mxCell id="Hs8WbcXcdVRiZlc4-tPR-119" value="" style="rounded=0;whiteSpace=wrap;html=1;" vertex="1" parent="Hs8WbcXcdVRiZlc4-tPR-117">
          <mxGeometry y="10" width="10" height="10" as="geometry" />
        </mxCell>
        <mxCell id="Hs8WbcXcdVRiZlc4-tPR-120" value="" style="rounded=0;whiteSpace=wrap;html=1;" vertex="1" parent="Hs8WbcXcdVRiZlc4-tPR-117">
          <mxGeometry y="20" width="10" height="10" as="geometry" />
        </mxCell>
        <mxCell id="Hs8WbcXcdVRiZlc4-tPR-121" value="" style="rounded=0;whiteSpace=wrap;html=1;" vertex="1" parent="Hs8WbcXcdVRiZlc4-tPR-117">
          <mxGeometry y="30" width="10" height="10" as="geometry" />
        </mxCell>
        <mxCell id="Hs8WbcXcdVRiZlc4-tPR-122" value="" style="group" vertex="1" connectable="0" parent="Hs8WbcXcdVRiZlc4-tPR-117">
          <mxGeometry x="12" width="20" height="40" as="geometry" />
        </mxCell>
        <mxCell id="Hs8WbcXcdVRiZlc4-tPR-123" value="" style="rounded=0;whiteSpace=wrap;html=1;" vertex="1" parent="Hs8WbcXcdVRiZlc4-tPR-122">
          <mxGeometry width="10" height="10" as="geometry" />
        </mxCell>
        <mxCell id="Hs8WbcXcdVRiZlc4-tPR-124" value="" style="rounded=0;whiteSpace=wrap;html=1;" vertex="1" parent="Hs8WbcXcdVRiZlc4-tPR-122">
          <mxGeometry x="10" width="10" height="10" as="geometry" />
        </mxCell>
        <mxCell id="Hs8WbcXcdVRiZlc4-tPR-125" value="" style="rounded=0;whiteSpace=wrap;html=1;" vertex="1" parent="Hs8WbcXcdVRiZlc4-tPR-122">
          <mxGeometry y="10" width="10" height="10" as="geometry" />
        </mxCell>
        <mxCell id="Hs8WbcXcdVRiZlc4-tPR-126" value="" style="rounded=0;whiteSpace=wrap;html=1;" vertex="1" parent="Hs8WbcXcdVRiZlc4-tPR-122">
          <mxGeometry x="10" y="10" width="10" height="10" as="geometry" />
        </mxCell>
        <mxCell id="Hs8WbcXcdVRiZlc4-tPR-127" value="" style="rounded=0;whiteSpace=wrap;html=1;" vertex="1" parent="Hs8WbcXcdVRiZlc4-tPR-122">
          <mxGeometry y="20" width="10" height="10" as="geometry" />
        </mxCell>
        <mxCell id="Hs8WbcXcdVRiZlc4-tPR-128" value="" style="rounded=0;whiteSpace=wrap;html=1;" vertex="1" parent="Hs8WbcXcdVRiZlc4-tPR-122">
          <mxGeometry x="10" y="20" width="10" height="10" as="geometry" />
        </mxCell>
        <mxCell id="Hs8WbcXcdVRiZlc4-tPR-129" value="" style="rounded=0;whiteSpace=wrap;html=1;" vertex="1" parent="Hs8WbcXcdVRiZlc4-tPR-122">
          <mxGeometry y="30" width="10" height="10" as="geometry" />
        </mxCell>
        <mxCell id="Hs8WbcXcdVRiZlc4-tPR-130" value="" style="rounded=0;whiteSpace=wrap;html=1;" vertex="1" parent="Hs8WbcXcdVRiZlc4-tPR-122">
          <mxGeometry x="10" y="30" width="10" height="10" as="geometry" />
        </mxCell>
        <mxCell id="Hs8WbcXcdVRiZlc4-tPR-131" value="" style="group" vertex="1" connectable="0" parent="1">
          <mxGeometry x="340" y="360" width="32" height="40" as="geometry" />
        </mxCell>
        <mxCell id="Hs8WbcXcdVRiZlc4-tPR-132" value="" style="rounded=0;whiteSpace=wrap;html=1;" vertex="1" parent="Hs8WbcXcdVRiZlc4-tPR-131">
          <mxGeometry width="10" height="10" as="geometry" />
        </mxCell>
        <mxCell id="Hs8WbcXcdVRiZlc4-tPR-133" value="" style="rounded=0;whiteSpace=wrap;html=1;" vertex="1" parent="Hs8WbcXcdVRiZlc4-tPR-131">
          <mxGeometry y="10" width="10" height="10" as="geometry" />
        </mxCell>
        <mxCell id="Hs8WbcXcdVRiZlc4-tPR-134" value="" style="rounded=0;whiteSpace=wrap;html=1;" vertex="1" parent="Hs8WbcXcdVRiZlc4-tPR-131">
          <mxGeometry y="20" width="10" height="10" as="geometry" />
        </mxCell>
        <mxCell id="Hs8WbcXcdVRiZlc4-tPR-135" value="" style="rounded=0;whiteSpace=wrap;html=1;" vertex="1" parent="Hs8WbcXcdVRiZlc4-tPR-131">
          <mxGeometry y="30" width="10" height="10" as="geometry" />
        </mxCell>
        <mxCell id="Hs8WbcXcdVRiZlc4-tPR-136" value="" style="group" vertex="1" connectable="0" parent="Hs8WbcXcdVRiZlc4-tPR-131">
          <mxGeometry x="12" width="20" height="40" as="geometry" />
        </mxCell>
        <mxCell id="Hs8WbcXcdVRiZlc4-tPR-137" value="" style="rounded=0;whiteSpace=wrap;html=1;" vertex="1" parent="Hs8WbcXcdVRiZlc4-tPR-136">
          <mxGeometry width="10" height="10" as="geometry" />
        </mxCell>
        <mxCell id="Hs8WbcXcdVRiZlc4-tPR-138" value="" style="rounded=0;whiteSpace=wrap;html=1;" vertex="1" parent="Hs8WbcXcdVRiZlc4-tPR-136">
          <mxGeometry x="10" width="10" height="10" as="geometry" />
        </mxCell>
        <mxCell id="Hs8WbcXcdVRiZlc4-tPR-139" value="" style="rounded=0;whiteSpace=wrap;html=1;" vertex="1" parent="Hs8WbcXcdVRiZlc4-tPR-136">
          <mxGeometry y="10" width="10" height="10" as="geometry" />
        </mxCell>
        <mxCell id="Hs8WbcXcdVRiZlc4-tPR-140" value="" style="rounded=0;whiteSpace=wrap;html=1;" vertex="1" parent="Hs8WbcXcdVRiZlc4-tPR-136">
          <mxGeometry x="10" y="10" width="10" height="10" as="geometry" />
        </mxCell>
        <mxCell id="Hs8WbcXcdVRiZlc4-tPR-141" value="" style="rounded=0;whiteSpace=wrap;html=1;" vertex="1" parent="Hs8WbcXcdVRiZlc4-tPR-136">
          <mxGeometry y="20" width="10" height="10" as="geometry" />
        </mxCell>
        <mxCell id="Hs8WbcXcdVRiZlc4-tPR-142" value="" style="rounded=0;whiteSpace=wrap;html=1;" vertex="1" parent="Hs8WbcXcdVRiZlc4-tPR-136">
          <mxGeometry x="10" y="20" width="10" height="10" as="geometry" />
        </mxCell>
        <mxCell id="Hs8WbcXcdVRiZlc4-tPR-143" value="" style="rounded=0;whiteSpace=wrap;html=1;" vertex="1" parent="Hs8WbcXcdVRiZlc4-tPR-136">
          <mxGeometry y="30" width="10" height="10" as="geometry" />
        </mxCell>
        <mxCell id="Hs8WbcXcdVRiZlc4-tPR-144" value="" style="rounded=0;whiteSpace=wrap;html=1;" vertex="1" parent="Hs8WbcXcdVRiZlc4-tPR-136">
          <mxGeometry x="10" y="30" width="10" height="10" as="geometry" />
        </mxCell>
        <mxCell id="Hs8WbcXcdVRiZlc4-tPR-145" value="" style="group" vertex="1" connectable="0" parent="1">
          <mxGeometry x="220" y="340" width="32" height="40" as="geometry" />
        </mxCell>
        <mxCell id="Hs8WbcXcdVRiZlc4-tPR-146" value="" style="rounded=0;whiteSpace=wrap;html=1;" vertex="1" parent="Hs8WbcXcdVRiZlc4-tPR-145">
          <mxGeometry width="10" height="10" as="geometry" />
        </mxCell>
        <mxCell id="Hs8WbcXcdVRiZlc4-tPR-147" value="" style="rounded=0;whiteSpace=wrap;html=1;" vertex="1" parent="Hs8WbcXcdVRiZlc4-tPR-145">
          <mxGeometry y="10" width="10" height="10" as="geometry" />
        </mxCell>
        <mxCell id="Hs8WbcXcdVRiZlc4-tPR-148" value="" style="rounded=0;whiteSpace=wrap;html=1;" vertex="1" parent="Hs8WbcXcdVRiZlc4-tPR-145">
          <mxGeometry y="20" width="10" height="10" as="geometry" />
        </mxCell>
        <mxCell id="Hs8WbcXcdVRiZlc4-tPR-149" value="" style="rounded=0;whiteSpace=wrap;html=1;" vertex="1" parent="Hs8WbcXcdVRiZlc4-tPR-145">
          <mxGeometry y="30" width="10" height="10" as="geometry" />
        </mxCell>
        <mxCell id="Hs8WbcXcdVRiZlc4-tPR-150" value="" style="group" vertex="1" connectable="0" parent="Hs8WbcXcdVRiZlc4-tPR-145">
          <mxGeometry x="12" width="20" height="40" as="geometry" />
        </mxCell>
        <mxCell id="Hs8WbcXcdVRiZlc4-tPR-151" value="" style="rounded=0;whiteSpace=wrap;html=1;" vertex="1" parent="Hs8WbcXcdVRiZlc4-tPR-150">
          <mxGeometry width="10" height="10" as="geometry" />
        </mxCell>
        <mxCell id="Hs8WbcXcdVRiZlc4-tPR-152" value="" style="rounded=0;whiteSpace=wrap;html=1;" vertex="1" parent="Hs8WbcXcdVRiZlc4-tPR-150">
          <mxGeometry x="10" width="10" height="10" as="geometry" />
        </mxCell>
        <mxCell id="Hs8WbcXcdVRiZlc4-tPR-153" value="" style="rounded=0;whiteSpace=wrap;html=1;" vertex="1" parent="Hs8WbcXcdVRiZlc4-tPR-150">
          <mxGeometry y="10" width="10" height="10" as="geometry" />
        </mxCell>
        <mxCell id="Hs8WbcXcdVRiZlc4-tPR-154" value="" style="rounded=0;whiteSpace=wrap;html=1;" vertex="1" parent="Hs8WbcXcdVRiZlc4-tPR-150">
          <mxGeometry x="10" y="10" width="10" height="10" as="geometry" />
        </mxCell>
        <mxCell id="Hs8WbcXcdVRiZlc4-tPR-155" value="" style="rounded=0;whiteSpace=wrap;html=1;" vertex="1" parent="Hs8WbcXcdVRiZlc4-tPR-150">
          <mxGeometry y="20" width="10" height="10" as="geometry" />
        </mxCell>
        <mxCell id="Hs8WbcXcdVRiZlc4-tPR-156" value="" style="rounded=0;whiteSpace=wrap;html=1;" vertex="1" parent="Hs8WbcXcdVRiZlc4-tPR-150">
          <mxGeometry x="10" y="20" width="10" height="10" as="geometry" />
        </mxCell>
        <mxCell id="Hs8WbcXcdVRiZlc4-tPR-157" value="" style="rounded=0;whiteSpace=wrap;html=1;" vertex="1" parent="Hs8WbcXcdVRiZlc4-tPR-150">
          <mxGeometry y="30" width="10" height="10" as="geometry" />
        </mxCell>
        <mxCell id="Hs8WbcXcdVRiZlc4-tPR-158" value="" style="rounded=0;whiteSpace=wrap;html=1;" vertex="1" parent="Hs8WbcXcdVRiZlc4-tPR-150">
          <mxGeometry x="10" y="30" width="10" height="10" as="geometry" />
        </mxCell>
        <mxCell id="Hs8WbcXcdVRiZlc4-tPR-159" value="" style="endArrow=blockThin;html=1;rounded=0;entryX=0.985;entryY=0.275;entryDx=0;entryDy=0;exitX=0.033;exitY=0.706;exitDx=0;exitDy=0;exitPerimeter=0;endFill=1;endSize=3;entryPerimeter=0;" edge="1" parent="1" source="Hs8WbcXcdVRiZlc4-tPR-68" target="Hs8WbcXcdVRiZlc4-tPR-66">
          <mxGeometry width="50" height="50" relative="1" as="geometry">
            <mxPoint x="330" y="290.91" as="sourcePoint" />
            <mxPoint x="307.97106781186415" y="299.9989321881359" as="targetPoint" />
          </mxGeometry>
        </mxCell>
        <mxCell id="Hs8WbcXcdVRiZlc4-tPR-160" value="" style="endArrow=blockThin;html=1;rounded=0;entryX=0.5;entryY=1;entryDx=0;entryDy=0;exitX=0.5;exitY=0;exitDx=0;exitDy=0;endFill=1;endSize=3;" edge="1" parent="1" source="Hs8WbcXcdVRiZlc4-tPR-69" target="Hs8WbcXcdVRiZlc4-tPR-68">
          <mxGeometry width="50" height="50" relative="1" as="geometry">
            <mxPoint x="341" y="304" as="sourcePoint" />
            <mxPoint x="320" y="316" as="targetPoint" />
          </mxGeometry>
        </mxCell>
        <mxCell id="Hs8WbcXcdVRiZlc4-tPR-162" value="" style="endArrow=blockThin;html=1;rounded=0;entryX=0.5;entryY=0;entryDx=0;entryDy=0;exitX=0.379;exitY=1.017;exitDx=0;exitDy=0;exitPerimeter=0;endFill=1;endSize=3;" edge="1" parent="1" source="Hs8WbcXcdVRiZlc4-tPR-67" target="Hs8WbcXcdVRiZlc4-tPR-70">
          <mxGeometry width="50" height="50" relative="1" as="geometry">
            <mxPoint x="341" y="304" as="sourcePoint" />
            <mxPoint x="320" y="316" as="targetPoint" />
          </mxGeometry>
        </mxCell>
        <mxCell id="Hs8WbcXcdVRiZlc4-tPR-164" value="" style="endArrow=blockThin;html=1;rounded=0;entryX=0;entryY=1;entryDx=0;entryDy=0;exitX=0.958;exitY=0.727;exitDx=0;exitDy=0;exitPerimeter=0;endFill=1;endSize=3;" edge="1" parent="1" source="Hs8WbcXcdVRiZlc4-tPR-70" target="Hs8WbcXcdVRiZlc4-tPR-66">
          <mxGeometry width="50" height="50" relative="1" as="geometry">
            <mxPoint x="341" y="304" as="sourcePoint" />
            <mxPoint x="320" y="316" as="targetPoint" />
          </mxGeometry>
        </mxCell>
        <mxCell id="Hs8WbcXcdVRiZlc4-tPR-165" value="" style="endArrow=blockThin;html=1;rounded=0;entryX=0;entryY=0;entryDx=0;entryDy=0;exitX=1;exitY=1;exitDx=0;exitDy=0;endFill=1;endSize=3;dashed=1;dashPattern=1 1;" edge="1" parent="1" source="Hs8WbcXcdVRiZlc4-tPR-67" target="Hs8WbcXcdVRiZlc4-tPR-66">
          <mxGeometry width="50" height="50" relative="1" as="geometry">
            <mxPoint x="351" y="314" as="sourcePoint" />
            <mxPoint x="330" y="326" as="targetPoint" />
          </mxGeometry>
        </mxCell>
        <mxCell id="Hs8WbcXcdVRiZlc4-tPR-166" value="" style="group" vertex="1" connectable="0" parent="1">
          <mxGeometry x="400" y="250" width="30" height="40" as="geometry" />
        </mxCell>
        <mxCell id="Hs8WbcXcdVRiZlc4-tPR-167" value="" style="rounded=0;whiteSpace=wrap;html=1;" vertex="1" parent="Hs8WbcXcdVRiZlc4-tPR-166">
          <mxGeometry width="10" height="10" as="geometry" />
        </mxCell>
        <mxCell id="Hs8WbcXcdVRiZlc4-tPR-168" value="" style="rounded=0;whiteSpace=wrap;html=1;" vertex="1" parent="Hs8WbcXcdVRiZlc4-tPR-166">
          <mxGeometry y="10" width="10" height="10" as="geometry" />
        </mxCell>
        <mxCell id="Hs8WbcXcdVRiZlc4-tPR-169" value="" style="rounded=0;whiteSpace=wrap;html=1;" vertex="1" parent="Hs8WbcXcdVRiZlc4-tPR-166">
          <mxGeometry y="20" width="10" height="10" as="geometry" />
        </mxCell>
        <mxCell id="Hs8WbcXcdVRiZlc4-tPR-170" value="" style="rounded=0;whiteSpace=wrap;html=1;" vertex="1" parent="Hs8WbcXcdVRiZlc4-tPR-166">
          <mxGeometry y="30" width="10" height="10" as="geometry" />
        </mxCell>
        <mxCell id="Hs8WbcXcdVRiZlc4-tPR-171" value="" style="rounded=0;whiteSpace=wrap;html=1;" vertex="1" parent="Hs8WbcXcdVRiZlc4-tPR-166">
          <mxGeometry x="10" width="10" height="10" as="geometry" />
        </mxCell>
        <mxCell id="Hs8WbcXcdVRiZlc4-tPR-172" value="" style="rounded=0;whiteSpace=wrap;html=1;" vertex="1" parent="Hs8WbcXcdVRiZlc4-tPR-166">
          <mxGeometry x="20" width="10" height="10" as="geometry" />
        </mxCell>
        <mxCell id="Hs8WbcXcdVRiZlc4-tPR-173" value="" style="rounded=0;whiteSpace=wrap;html=1;" vertex="1" parent="Hs8WbcXcdVRiZlc4-tPR-166">
          <mxGeometry x="10" y="10" width="10" height="10" as="geometry" />
        </mxCell>
        <mxCell id="Hs8WbcXcdVRiZlc4-tPR-174" value="" style="rounded=0;whiteSpace=wrap;html=1;" vertex="1" parent="Hs8WbcXcdVRiZlc4-tPR-166">
          <mxGeometry x="20" y="10" width="10" height="10" as="geometry" />
        </mxCell>
        <mxCell id="Hs8WbcXcdVRiZlc4-tPR-175" value="" style="rounded=0;whiteSpace=wrap;html=1;" vertex="1" parent="Hs8WbcXcdVRiZlc4-tPR-166">
          <mxGeometry x="10" y="20" width="10" height="10" as="geometry" />
        </mxCell>
        <mxCell id="Hs8WbcXcdVRiZlc4-tPR-176" value="" style="rounded=0;whiteSpace=wrap;html=1;" vertex="1" parent="Hs8WbcXcdVRiZlc4-tPR-166">
          <mxGeometry x="20" y="20" width="10" height="10" as="geometry" />
        </mxCell>
        <mxCell id="Hs8WbcXcdVRiZlc4-tPR-177" value="" style="rounded=0;whiteSpace=wrap;html=1;" vertex="1" parent="Hs8WbcXcdVRiZlc4-tPR-166">
          <mxGeometry x="10" y="30" width="10" height="10" as="geometry" />
        </mxCell>
        <mxCell id="Hs8WbcXcdVRiZlc4-tPR-178" value="" style="rounded=0;whiteSpace=wrap;html=1;" vertex="1" parent="Hs8WbcXcdVRiZlc4-tPR-166">
          <mxGeometry x="20" y="30" width="10" height="10" as="geometry" />
        </mxCell>
        <mxCell id="Hs8WbcXcdVRiZlc4-tPR-179" value="" style="group" vertex="1" connectable="0" parent="1">
          <mxGeometry x="400" y="320" width="30" height="40" as="geometry" />
        </mxCell>
        <mxCell id="Hs8WbcXcdVRiZlc4-tPR-180" value="" style="rounded=0;whiteSpace=wrap;html=1;" vertex="1" parent="Hs8WbcXcdVRiZlc4-tPR-179">
          <mxGeometry width="10" height="10" as="geometry" />
        </mxCell>
        <mxCell id="Hs8WbcXcdVRiZlc4-tPR-181" value="" style="rounded=0;whiteSpace=wrap;html=1;" vertex="1" parent="Hs8WbcXcdVRiZlc4-tPR-179">
          <mxGeometry y="10" width="10" height="10" as="geometry" />
        </mxCell>
        <mxCell id="Hs8WbcXcdVRiZlc4-tPR-182" value="" style="rounded=0;whiteSpace=wrap;html=1;" vertex="1" parent="Hs8WbcXcdVRiZlc4-tPR-179">
          <mxGeometry y="20" width="10" height="10" as="geometry" />
        </mxCell>
        <mxCell id="Hs8WbcXcdVRiZlc4-tPR-183" value="" style="rounded=0;whiteSpace=wrap;html=1;" vertex="1" parent="Hs8WbcXcdVRiZlc4-tPR-179">
          <mxGeometry y="30" width="10" height="10" as="geometry" />
        </mxCell>
        <mxCell id="Hs8WbcXcdVRiZlc4-tPR-184" value="" style="rounded=0;whiteSpace=wrap;html=1;" vertex="1" parent="Hs8WbcXcdVRiZlc4-tPR-179">
          <mxGeometry x="10" width="10" height="10" as="geometry" />
        </mxCell>
        <mxCell id="Hs8WbcXcdVRiZlc4-tPR-185" value="" style="rounded=0;whiteSpace=wrap;html=1;" vertex="1" parent="Hs8WbcXcdVRiZlc4-tPR-179">
          <mxGeometry x="20" width="10" height="10" as="geometry" />
        </mxCell>
        <mxCell id="Hs8WbcXcdVRiZlc4-tPR-186" value="" style="rounded=0;whiteSpace=wrap;html=1;" vertex="1" parent="Hs8WbcXcdVRiZlc4-tPR-179">
          <mxGeometry x="10" y="10" width="10" height="10" as="geometry" />
        </mxCell>
        <mxCell id="Hs8WbcXcdVRiZlc4-tPR-187" value="" style="rounded=0;whiteSpace=wrap;html=1;" vertex="1" parent="Hs8WbcXcdVRiZlc4-tPR-179">
          <mxGeometry x="20" y="10" width="10" height="10" as="geometry" />
        </mxCell>
        <mxCell id="Hs8WbcXcdVRiZlc4-tPR-188" value="" style="rounded=0;whiteSpace=wrap;html=1;" vertex="1" parent="Hs8WbcXcdVRiZlc4-tPR-179">
          <mxGeometry x="10" y="20" width="10" height="10" as="geometry" />
        </mxCell>
        <mxCell id="Hs8WbcXcdVRiZlc4-tPR-189" value="" style="rounded=0;whiteSpace=wrap;html=1;" vertex="1" parent="Hs8WbcXcdVRiZlc4-tPR-179">
          <mxGeometry x="20" y="20" width="10" height="10" as="geometry" />
        </mxCell>
        <mxCell id="Hs8WbcXcdVRiZlc4-tPR-190" value="" style="rounded=0;whiteSpace=wrap;html=1;" vertex="1" parent="Hs8WbcXcdVRiZlc4-tPR-179">
          <mxGeometry x="10" y="30" width="10" height="10" as="geometry" />
        </mxCell>
        <mxCell id="Hs8WbcXcdVRiZlc4-tPR-191" value="" style="rounded=0;whiteSpace=wrap;html=1;" vertex="1" parent="Hs8WbcXcdVRiZlc4-tPR-179">
          <mxGeometry x="20" y="30" width="10" height="10" as="geometry" />
        </mxCell>
        <mxCell id="Hs8WbcXcdVRiZlc4-tPR-192" value="&lt;font style=&quot;font-size: 14px;&quot; face=&quot;Times New Roman&quot;&gt;Norm&lt;/font&gt;" style="rounded=0;whiteSpace=wrap;html=1;" vertex="1" parent="1">
          <mxGeometry x="450" y="280" width="50" height="40" as="geometry" />
        </mxCell>
        <mxCell id="Hs8WbcXcdVRiZlc4-tPR-246" value="" style="shape=trapezoid;perimeter=trapezoidPerimeter;whiteSpace=wrap;html=1;fixedSize=1;rotation=-90;size=10;" vertex="1" parent="1">
          <mxGeometry x="505" y="355" width="70" height="35" as="geometry" />
        </mxCell>
        <mxCell id="Hs8WbcXcdVRiZlc4-tPR-247" value="" style="shape=trapezoid;perimeter=trapezoidPerimeter;whiteSpace=wrap;html=1;fixedSize=1;rotation=-90;size=10;" vertex="1" parent="1">
          <mxGeometry x="505" y="215" width="70" height="35" as="geometry" />
        </mxCell>
        <mxCell id="Hs8WbcXcdVRiZlc4-tPR-248" value="&lt;font style=&quot;font-size: 14px;&quot; face=&quot;Times New Roman&quot;&gt;Forward&lt;br&gt;Conv1d&lt;/font&gt;" style="rounded=0;whiteSpace=wrap;html=1;" vertex="1" parent="1">
          <mxGeometry x="610" y="212.5" width="70" height="40" as="geometry" />
        </mxCell>
        <mxCell id="Hs8WbcXcdVRiZlc4-tPR-249" value="&lt;font style=&quot;font-size: 14px;&quot; face=&quot;Times New Roman&quot;&gt;Backward&lt;br&gt;Conv1d&lt;/font&gt;" style="rounded=0;whiteSpace=wrap;html=1;" vertex="1" parent="1">
          <mxGeometry x="610" y="280" width="70" height="40" as="geometry" />
        </mxCell>
        <mxCell id="Hs8WbcXcdVRiZlc4-tPR-250" value="&lt;font face=&quot;Times New Roman&quot;&gt;&lt;span style=&quot;font-size: 14px;&quot;&gt;Activation&lt;/span&gt;&lt;/font&gt;" style="rounded=0;whiteSpace=wrap;html=1;" vertex="1" parent="1">
          <mxGeometry x="610" y="352.5" width="70" height="40" as="geometry" />
        </mxCell>
        <mxCell id="Hs8WbcXcdVRiZlc4-tPR-251" value="&lt;font style=&quot;font-size: 14px;&quot; face=&quot;Times New Roman&quot;&gt;Forward&lt;br&gt;SSM&lt;/font&gt;" style="rounded=0;whiteSpace=wrap;html=1;" vertex="1" parent="1">
          <mxGeometry x="700" y="212.5" width="70" height="40" as="geometry" />
        </mxCell>
        <mxCell id="Hs8WbcXcdVRiZlc4-tPR-252" value="&lt;font style=&quot;font-size: 14px;&quot; face=&quot;Times New Roman&quot;&gt;Backward&lt;br&gt;SSM&lt;/font&gt;" style="rounded=0;whiteSpace=wrap;html=1;" vertex="1" parent="1">
          <mxGeometry x="700" y="280" width="70" height="40" as="geometry" />
        </mxCell>
        <mxCell id="Hs8WbcXcdVRiZlc4-tPR-253" value="" style="shape=sumEllipse;perimeter=ellipsePerimeter;whiteSpace=wrap;html=1;backgroundOutline=1;" vertex="1" parent="1">
          <mxGeometry x="800" y="222.5" width="20" height="20" as="geometry" />
        </mxCell>
        <mxCell id="Hs8WbcXcdVRiZlc4-tPR-255" value="" style="shape=sumEllipse;perimeter=ellipsePerimeter;whiteSpace=wrap;html=1;backgroundOutline=1;" vertex="1" parent="1">
          <mxGeometry x="780" y="290" width="20" height="20" as="geometry" />
        </mxCell>
        <mxCell id="Hs8WbcXcdVRiZlc4-tPR-256" value="" style="shape=orEllipse;perimeter=ellipsePerimeter;whiteSpace=wrap;html=1;backgroundOutline=1;" vertex="1" parent="1">
          <mxGeometry x="820" y="290" width="20" height="20" as="geometry" />
        </mxCell>
        <mxCell id="Hs8WbcXcdVRiZlc4-tPR-257" value="" style="shape=trapezoid;perimeter=trapezoidPerimeter;whiteSpace=wrap;html=1;fixedSize=1;rotation=90;size=10;" vertex="1" parent="1">
          <mxGeometry x="840" y="282.5" width="70" height="35" as="geometry" />
        </mxCell>
        <mxCell id="Hs8WbcXcdVRiZlc4-tPR-258" value="" style="shape=orEllipse;perimeter=ellipsePerimeter;whiteSpace=wrap;html=1;backgroundOutline=1;" vertex="1" parent="1">
          <mxGeometry x="910" y="290" width="20" height="20" as="geometry" />
        </mxCell>
        <mxCell id="Hs8WbcXcdVRiZlc4-tPR-326" value="" style="group" vertex="1" connectable="0" parent="1">
          <mxGeometry x="950" y="340" width="30" height="40" as="geometry" />
        </mxCell>
        <mxCell id="Hs8WbcXcdVRiZlc4-tPR-327" value="" style="rounded=0;whiteSpace=wrap;html=1;" vertex="1" parent="Hs8WbcXcdVRiZlc4-tPR-326">
          <mxGeometry width="10" height="10" as="geometry" />
        </mxCell>
        <mxCell id="Hs8WbcXcdVRiZlc4-tPR-328" value="" style="rounded=0;whiteSpace=wrap;html=1;" vertex="1" parent="Hs8WbcXcdVRiZlc4-tPR-326">
          <mxGeometry y="10" width="10" height="10" as="geometry" />
        </mxCell>
        <mxCell id="Hs8WbcXcdVRiZlc4-tPR-329" value="" style="rounded=0;whiteSpace=wrap;html=1;" vertex="1" parent="Hs8WbcXcdVRiZlc4-tPR-326">
          <mxGeometry y="20" width="10" height="10" as="geometry" />
        </mxCell>
        <mxCell id="Hs8WbcXcdVRiZlc4-tPR-330" value="" style="rounded=0;whiteSpace=wrap;html=1;" vertex="1" parent="Hs8WbcXcdVRiZlc4-tPR-326">
          <mxGeometry y="30" width="10" height="10" as="geometry" />
        </mxCell>
        <mxCell id="Hs8WbcXcdVRiZlc4-tPR-331" value="" style="rounded=0;whiteSpace=wrap;html=1;" vertex="1" parent="Hs8WbcXcdVRiZlc4-tPR-326">
          <mxGeometry x="10" width="10" height="10" as="geometry" />
        </mxCell>
        <mxCell id="Hs8WbcXcdVRiZlc4-tPR-332" value="" style="rounded=0;whiteSpace=wrap;html=1;" vertex="1" parent="Hs8WbcXcdVRiZlc4-tPR-326">
          <mxGeometry x="20" width="10" height="10" as="geometry" />
        </mxCell>
        <mxCell id="Hs8WbcXcdVRiZlc4-tPR-333" value="" style="rounded=0;whiteSpace=wrap;html=1;" vertex="1" parent="Hs8WbcXcdVRiZlc4-tPR-326">
          <mxGeometry x="10" y="10" width="10" height="10" as="geometry" />
        </mxCell>
        <mxCell id="Hs8WbcXcdVRiZlc4-tPR-334" value="" style="rounded=0;whiteSpace=wrap;html=1;" vertex="1" parent="Hs8WbcXcdVRiZlc4-tPR-326">
          <mxGeometry x="20" y="10" width="10" height="10" as="geometry" />
        </mxCell>
        <mxCell id="Hs8WbcXcdVRiZlc4-tPR-335" value="" style="rounded=0;whiteSpace=wrap;html=1;" vertex="1" parent="Hs8WbcXcdVRiZlc4-tPR-326">
          <mxGeometry x="10" y="20" width="10" height="10" as="geometry" />
        </mxCell>
        <mxCell id="Hs8WbcXcdVRiZlc4-tPR-336" value="" style="rounded=0;whiteSpace=wrap;html=1;" vertex="1" parent="Hs8WbcXcdVRiZlc4-tPR-326">
          <mxGeometry x="20" y="20" width="10" height="10" as="geometry" />
        </mxCell>
        <mxCell id="Hs8WbcXcdVRiZlc4-tPR-337" value="" style="rounded=0;whiteSpace=wrap;html=1;" vertex="1" parent="Hs8WbcXcdVRiZlc4-tPR-326">
          <mxGeometry x="10" y="30" width="10" height="10" as="geometry" />
        </mxCell>
        <mxCell id="Hs8WbcXcdVRiZlc4-tPR-338" value="" style="rounded=0;whiteSpace=wrap;html=1;" vertex="1" parent="Hs8WbcXcdVRiZlc4-tPR-326">
          <mxGeometry x="20" y="30" width="10" height="10" as="geometry" />
        </mxCell>
        <mxCell id="Hs8WbcXcdVRiZlc4-tPR-339" value="&lt;font face=&quot;Times New Roman&quot; style=&quot;font-size: 14px;&quot;&gt;KAN&lt;/font&gt;" style="rounded=0;whiteSpace=wrap;html=1;" vertex="1" parent="1">
          <mxGeometry x="1000" y="230" width="30" height="150" as="geometry" />
        </mxCell>
        <mxCell id="Hs8WbcXcdVRiZlc4-tPR-340" value="&lt;font face=&quot;Times New Roman&quot; style=&quot;font-size: 14px;&quot;&gt;0.6&lt;/font&gt;" style="rounded=0;whiteSpace=wrap;html=1;" vertex="1" parent="1">
          <mxGeometry x="1050" y="240" width="30" height="20" as="geometry" />
        </mxCell>
        <mxCell id="Hs8WbcXcdVRiZlc4-tPR-344" value="" style="group" vertex="1" connectable="0" parent="1">
          <mxGeometry x="950" y="230" width="30" height="40" as="geometry" />
        </mxCell>
        <mxCell id="Hs8WbcXcdVRiZlc4-tPR-314" value="" style="rounded=0;whiteSpace=wrap;html=1;container=0;" vertex="1" parent="Hs8WbcXcdVRiZlc4-tPR-344">
          <mxGeometry width="10" height="10" as="geometry" />
        </mxCell>
        <mxCell id="Hs8WbcXcdVRiZlc4-tPR-315" value="" style="rounded=0;whiteSpace=wrap;html=1;container=0;" vertex="1" parent="Hs8WbcXcdVRiZlc4-tPR-344">
          <mxGeometry y="10" width="10" height="10" as="geometry" />
        </mxCell>
        <mxCell id="Hs8WbcXcdVRiZlc4-tPR-316" value="" style="rounded=0;whiteSpace=wrap;html=1;container=0;" vertex="1" parent="Hs8WbcXcdVRiZlc4-tPR-344">
          <mxGeometry y="20" width="10" height="10" as="geometry" />
        </mxCell>
        <mxCell id="Hs8WbcXcdVRiZlc4-tPR-317" value="" style="rounded=0;whiteSpace=wrap;html=1;container=0;" vertex="1" parent="Hs8WbcXcdVRiZlc4-tPR-344">
          <mxGeometry y="30" width="10" height="10" as="geometry" />
        </mxCell>
        <mxCell id="Hs8WbcXcdVRiZlc4-tPR-318" value="" style="rounded=0;whiteSpace=wrap;html=1;container=0;" vertex="1" parent="Hs8WbcXcdVRiZlc4-tPR-344">
          <mxGeometry x="10" width="10" height="10" as="geometry" />
        </mxCell>
        <mxCell id="Hs8WbcXcdVRiZlc4-tPR-319" value="" style="rounded=0;whiteSpace=wrap;html=1;container=0;" vertex="1" parent="Hs8WbcXcdVRiZlc4-tPR-344">
          <mxGeometry x="20" width="10" height="10" as="geometry" />
        </mxCell>
        <mxCell id="Hs8WbcXcdVRiZlc4-tPR-320" value="" style="rounded=0;whiteSpace=wrap;html=1;container=0;" vertex="1" parent="Hs8WbcXcdVRiZlc4-tPR-344">
          <mxGeometry x="10" y="10" width="10" height="10" as="geometry" />
        </mxCell>
        <mxCell id="Hs8WbcXcdVRiZlc4-tPR-321" value="" style="rounded=0;whiteSpace=wrap;html=1;container=0;" vertex="1" parent="Hs8WbcXcdVRiZlc4-tPR-344">
          <mxGeometry x="20" y="10" width="10" height="10" as="geometry" />
        </mxCell>
        <mxCell id="Hs8WbcXcdVRiZlc4-tPR-322" value="" style="rounded=0;whiteSpace=wrap;html=1;container=0;" vertex="1" parent="Hs8WbcXcdVRiZlc4-tPR-344">
          <mxGeometry x="10" y="20" width="10" height="10" as="geometry" />
        </mxCell>
        <mxCell id="Hs8WbcXcdVRiZlc4-tPR-323" value="" style="rounded=0;whiteSpace=wrap;html=1;container=0;" vertex="1" parent="Hs8WbcXcdVRiZlc4-tPR-344">
          <mxGeometry x="20" y="20" width="10" height="10" as="geometry" />
        </mxCell>
        <mxCell id="Hs8WbcXcdVRiZlc4-tPR-324" value="" style="rounded=0;whiteSpace=wrap;html=1;container=0;" vertex="1" parent="Hs8WbcXcdVRiZlc4-tPR-344">
          <mxGeometry x="10" y="30" width="10" height="10" as="geometry" />
        </mxCell>
        <mxCell id="Hs8WbcXcdVRiZlc4-tPR-325" value="" style="rounded=0;whiteSpace=wrap;html=1;container=0;" vertex="1" parent="Hs8WbcXcdVRiZlc4-tPR-344">
          <mxGeometry x="20" y="30" width="10" height="10" as="geometry" />
        </mxCell>
        <mxCell id="Hs8WbcXcdVRiZlc4-tPR-345" value="&lt;font face=&quot;Times New Roman&quot; style=&quot;font-size: 14px;&quot;&gt;0.1&lt;/font&gt;" style="rounded=0;whiteSpace=wrap;html=1;" vertex="1" parent="1">
          <mxGeometry x="1050" y="260" width="30" height="20" as="geometry" />
        </mxCell>
        <mxCell id="Hs8WbcXcdVRiZlc4-tPR-346" value="&lt;font face=&quot;Times New Roman&quot; style=&quot;font-size: 14px;&quot;&gt;0.7&lt;/font&gt;" style="rounded=0;whiteSpace=wrap;html=1;" vertex="1" parent="1">
          <mxGeometry x="1050" y="330" width="30" height="20" as="geometry" />
        </mxCell>
        <mxCell id="Hs8WbcXcdVRiZlc4-tPR-347" value="&lt;font face=&quot;Times New Roman&quot; style=&quot;font-size: 14px;&quot;&gt;0.2&lt;/font&gt;" style="rounded=0;whiteSpace=wrap;html=1;" vertex="1" parent="1">
          <mxGeometry x="1050" y="350" width="30" height="20" as="geometry" />
        </mxCell>
      </root>
    </mxGraphModel>
  </diagram>
</mxfile>
